<?xml version="1.0" standalone="no"?><!DOCTYPE svg PUBLIC "-//W3C//DTD SVG 1.1//EN" "http://www.w3.org/Graphics/SVG/1.1/DTD/svg11.dtd"><svg t="1717749687660" class="icon" viewBox="0 0 1024 1024" version="1.1" xmlns="http://www.w3.org/2000/svg" p-id="6095" xmlns:xlink="http://www.w3.org/1999/xlink" width="200" height="200"><path d="M590.752857 70.309291c-6.411691 0-12.358954 1.367483-17.867591 3.199396 11.688113 7.792076 18.099805 18.099805 21.2992 29.775017 0.232214 1.599698 0.683742 2.747868 0.915956 4.347565 0.232214 1.380384 0.464428 2.747868 0.464428 4.128252 0.903055 20.15103-5.276422 22.666683-9.623987 34.57411-6.643906 15.351937-4.811994 31.826243 3.212296 45.114054 0.683742 1.599698 1.599698 3.431609 2.747868 5.031307-8.708031-57.924535 39.605417-66.632567 48.545663-84.719471 0.683742-15.803465-12.371855-26.330507-22.679584-33.671055-9.843301-5.934362-18.770646-7.779175-27.014249-7.779175z m72.812044 13.055597c-0.903055 5.263521-0.219313 3.896038-0.451528 6.643906-0.232214 1.831912-0.232214 4.115351-0.451527 5.947263a49.745436 49.745436 0 0 1-1.612599 5.495735c-0.451528 1.831912-1.135269 3.663824-1.831912 5.495736-0.903055 1.831912-1.599698 3.431609-2.515653 5.263521-0.683742 0.915956-1.14817 1.831912-1.831912 2.747868l-1.367483 2.064126a79.443049 79.443049 0 0 1-3.444511 4.579779c-1.367483 1.367483-2.515654 2.967181-4.128252 4.128252v0.219313c-1.367483 1.14817-2.734967 2.528554-4.334664 3.663824-4.811994 3.663824-10.32063 6.411691-15.351937 9.856202-1.599698 1.135269-3.199395 2.064126-4.57978 3.431609-1.599698 1.135269-2.967181 2.283439-4.347565 3.663824-1.599698 1.367483-2.747868 2.747868-4.128252 4.347565-1.135269 1.367483-2.515654 2.967181-3.431609 4.57978a58.517972 58.517972 0 0 0-3.199396 4.811993c-0.915956 1.831912-1.612598 3.431609-2.528554 5.263522-0.683742 1.831912-1.367483 3.431609-1.831912 5.263521-0.683742 2.064126-1.135269 3.896038-1.599698 5.727949-0.232214 0.915956-0.232214 2.064126-0.451527 2.967181-0.232214 0.928857-0.232214 1.844813-0.464428 2.760769 0 1.831912-0.219313 3.896038-0.219314 5.715049 0 1.380384 0 2.760769 0.219314 4.128252 0 1.831912 0.232214 3.663824 0.696642 5.727949 0.219313 1.831912 0.683742 3.663824 1.135269 5.495736 0.696643 1.831912 1.161071 3.663824 1.831912 5.495735 0.464428 1.14817 1.14817 2.283439 1.612599 3.199396l-52.673915-20.383245a566.086551 566.086551 0 0 0-26.562722-6.863218l-14.42308-3.43161a425.184151 425.184151 0 0 0-41.669543-6.192378c-0.464428 0-0.696643-0.219313-1.161071-0.219313a409.638702 409.638702 0 0 0-40.985802-2.064126c-10.062614 0-20.15103 0.464428-29.99433 1.14817a435.904706 435.904706 0 0 0-41.901758 5.031307 161.38885 161.38885 0 0 0-10.307729 1.831912c-7.095433 1.380384-13.971553 2.980082-20.602557 4.579779l-10.32063 2.747868c-3.418709 1.380384-6.631005 2.980082-9.8304 4.347565l-7.559862 3.444511c-0.464428 0.232214-0.915956 0.232214-1.14817 0.451527-2.283439 1.14817-4.347565 2.064126-6.411691 3.212296-0.683742 0.219313-1.14817 0.451528-1.599698 0.683742a100.884157 100.884157 0 0 0-7.095433 3.663824c-1.612598 0.683742-3.212296 1.599698-4.579779 2.283439a20.499351 20.499351 0 0 1-2.064126 1.161071c-2.064126 1.135269-4.128252 2.283439-5.960164 3.418708-2.064126 1.161071-3.883137 2.29634-5.495736 3.444511-1.599698 1.135269-3.199395 2.064126-4.579779 3.199395-0.219313 0.232214-0.451528 0.232214-0.683742 0.464428-1.367483 0.903055-2.967181 2.064126-4.347565 3.199396l-0.464429 0.464428-3.431609 2.747868c-0.451528 0.219313-0.903055 0.683742-1.367484 0.903055-1.14817 0.928857-2.29634 2.064126-3.44451 2.980082-0.219313 0.464428-0.683742 0.696643-0.903055 0.915956-1.380384 1.380384-2.760769 2.528554-4.128252 3.896037-0.232214 0-0.232214 0.232214-0.464428 0.464429-1.367483 1.135269-2.747868 2.515654-4.128252 3.883137-0.219313 0.232214-0.219313 0.464428-0.451528 0.464428a53.615672 53.615672 0 0 0-3.431609 3.663824c-0.451528 0.451528-1.14817 0.915956-1.599698 1.367483a64.465235 64.465235 0 0 1-3.896038 4.128252c-0.232214 0.451528-0.683742 0.683742-0.903055 1.14817-1.844813 1.831912-3.44451 3.663824-5.276422 5.495736l-0.683742 0.683741c-3.663824 3.896038-7.559861 7.779175-11.688113 11.223685-4.115351 3.663824-8.462917 7.095433-12.823383 10.062615-4.57978 3.212296-8.927345 5.960164-13.739338 8.708031-4.57978 2.515654-9.378872 4.811994-14.42308 6.87612-4.799093 2.064126-9.843301 3.883137-14.874608 5.495735-9.623987 2.064126-19.480189 5.947263-27.943106 6.631005-1.831912 0-3.896038 0.464428-5.727949 0.683742-2.064126 0.464428-3.883137 0.928857-5.715049 1.380384l-5.495736 2.064126c-1.831912 0.683742-3.663824 1.599698-5.495735 2.515653-1.612598 1.14817-3.44451 2.064126-5.031307 3.199396a37.296176 37.296176 0 0 0-4.592681 3.896037c-1.599698 1.14817-3.199395 2.747868-4.579779 4.128252-1.367483 1.599698-2.747868 2.967181-3.896038 4.57978-1.135269 1.831912-2.515654 3.431609-3.431609 5.263521a40.353663 40.353663 0 0 0-3.199396 5.263521c-0.915956 2.064126-1.831912 3.896038-2.528554 5.960164-0.683742 1.831912-1.367483 3.883137-2.064126 5.947263-0.451528 1.831912-0.903055 3.663824-1.135269 5.495736 0 0.232214-0.232214 0.464428-0.232214 0.683741-0.451528 2.064126-0.451528 4.811994-0.683742 6.192378-0.232214 1.599698-0.464428 2.967181-0.464428 4.57978 0 0.903055 0 2.064126 0.232214 2.967181 0.232214 1.612598 0.464428 2.980082 0.915956 4.360466 0.464428 1.367483 0.915956 2.747868 1.599697 4.128252v0.219314c0.696643 1.367483 1.612598 2.747868 2.528555 4.128251 0.903055 1.367483 1.831912 2.734967 2.967181 4.115352 1.161071 1.14817 2.528554 2.515654 3.896037 3.663823a33.542047 33.542047 0 0 0 4.347566 3.663824c5.495735 4.811994 6.87612 6.411691 13.971553 10.062614 1.14817 0.696643 2.29634 1.161071 3.663823 1.844813 0.232214 0 0.464428 0.232214 0.683742 0.232214 0 0.451528 0 0.683742 0.232214 1.135269 0.232214 1.831912 0.683742 3.663824 1.14817 5.495736 0.451528 2.064126 1.14817 3.896038 1.831912 5.495735 0.683742 1.380384 1.14817 2.747868 1.831912 4.128252 0.232214 0.451528 0.451528 0.903055 0.683742 1.14817 0.915956 1.831912 1.831912 3.431609 2.747867 5.031307l3.43161 4.811994c1.161071 1.367483 2.528554 2.967181 3.896038 4.347565 1.380384 1.367483 2.747868 2.515654 4.347565 3.896038 0 0 0.232214 0.219313 0.464428 0.219313 1.367483 1.161071 2.747868 2.29634 4.128252 3.212296 1.599698 1.14817 3.199395 2.064126 5.031307 2.967182 1.599698 0.928857 3.431609 1.844813 5.263522 2.528554 1.380384 0.683742 2.967181 1.14817 4.579779 1.599698 0.232214 0.232214 0.464428 0.232214 0.915956 0.464428 0.915956 0.219313 2.064126 0.451528 2.967181 0.683742-0.670841 12.358954-0.903055 24.047068 0.928857 28.162418 2.064126 4.57978 12.12674-9.391773 22.215156-25.414551-1.380384 15.803465-2.29634 34.341896 0 39.837632 2.515654 5.72795 16.254992-12.12674 28.162419-31.826243 162.356409-37.541291 310.509052 74.656857 326.080302 233.117229-2.967181-24.74371-33.438841-38.483049-47.397493-35.038539-6.87612 16.938734-18.551332 38.702362-37.334879 52.209487a146.810961 146.810961 0 0 0-2.283439-45.797796 148.101039 148.101039 0 0 1-28.394633 57.705222c-21.750728 1.599698-43.514356-8.940246-54.957354-24.730809-0.915956-0.696643-1.14817-2.064126-1.831912-2.980082-0.683742-1.599698-1.380384-3.212296-1.831912-4.811994a19.015761 19.015761 0 0 1-1.380384-4.811993c-0.219313-1.599698-0.219313-3.199395-0.219314-5.031307v-3.43161c0.219313-1.612598 0.683742-3.212296 1.13527-4.811994 0.464428-1.599698 0.915956-3.212296 1.612598-4.811993 0.903055-1.599698 1.599698-3.199395 2.747868-4.811994 3.883137-10.991471 3.883137-19.918816-3.212296-25.182337a26.033789 26.033789 0 0 0-4.347566-2.29634c-0.915956-0.232214-2.064126-0.683742-2.967181-0.903055-0.696643-0.232214-1.161071-0.464428-1.844812-0.696643-1.599698-0.451528-3.199395-0.915956-4.811994-1.14817a17.428964 17.428964 0 0 0-4.799093-0.683742 37.334879 37.334879 0 0 0-5.031307-0.451527c-1.161071 0-2.29634 0.219313-3.44451 0.219313-1.831912 0-3.431609 0.232214-5.031307 0.696643a35.451364 35.451364 0 0 0-4.811994 0.903055 39.618318 39.618318 0 0 0-4.811994 1.612598c-1.599698 0.683742-2.967181 1.367483-4.579779 2.064126-1.380384 0.683742-2.747868 1.599698-4.347566 2.28344-53.357657 34.806324-21.531414 116.3264 14.874608 139.909039-13.739339 2.515654-27.697991 5.495735-31.606929 8.475817l-0.451528 0.451528a215.701165 215.701165 0 0 0 30.923188 15.351937c14.655294 4.799093 30.226545 9.159559 37.089764 10.991471v0.219313c19.00286 3.896038 38.237934 5.263521 57.705222 4.128252 101.438891-7.095433 184.558665-84.267943 199.678387-185.939049 0.451528 2.064126 0.915956 3.883137 1.380384 5.947263 0.683742 4.128252 1.599698 8.475817 2.064126 12.823383v0.232214c0.451528 2.064126 0.683742 4.128252 0.903055 5.947263v0.928857c0.232214 2.064126 0.464428 4.115351 0.464429 5.947263 0.232214 2.515654 0.451528 5.031307 0.451527 7.559861v3.663824c0 1.135269 0.232214 2.515654 0.232215 3.663824 0 1.367483-0.232214 2.747868-0.232215 4.128251v3.199396c0 1.599698-0.232214 2.967181-0.232214 4.579779 0 0.903055 0 1.831912-0.219313 2.967181 0 1.612598-0.232214 3.212296-0.232214 5.044208-0.232214 0.683742-0.232214 1.367483-0.232215 2.064126l-0.683741 5.263522c0 0.683742 0 1.367483-0.232214 2.064126-0.232214 2.283439-0.683742 4.347565-0.903056 6.643905v0.451528c-0.464428 2.064126-0.928857 4.347565-1.380384 6.411691v0.683742l-1.380384 6.192378c0 0.219313-0.232214 0.683742-0.232214 0.903055-0.451528 2.064126-0.903055 4.128252-1.599698 6.192378v0.683741c-0.683742 2.283439-1.367483 4.347565-1.831912 6.411692-0.232214 0.232214-0.232214 0.451528-0.232214 0.451527l-2.064126 6.87612c-0.903055 2.283439-1.599698 4.347565-2.515653 6.643905-0.903055 2.283439-1.599698 4.57978-2.515654 6.631005-0.915956 2.29634-1.831912 4.360466-2.747868 6.643906h-0.232214c-0.903055 2.064126-1.831912 4.347565-2.967181 6.411691a11.184983 11.184983 0 0 1-0.696642 1.599698c-0.219313 0.232214-0.219313 0.464428-0.451528 0.696642a216.746129 216.746129 0 0 1-64.349128 76.940296c-1.831912 1.135269-3.663824 2.515654-5.495735 3.883137-0.451528 0.464428-1.14817 0.683742-1.599698 1.14817-1.599698 1.14817-3.212296 2.283439-5.031307 3.43161l0.683742 1.380384h0.219313l9.623988-1.380384h0.232214c5.947263-0.903055 11.907427-2.064126 17.85469-3.199395 1.599698-0.232214 3.431609-0.683742 5.031307-1.148171 1.161071-0.232214 2.064126-0.451528 3.225197-0.683741 1.586797-0.232214 3.199395-0.683742 4.799093-0.915956 1.367483-0.464428 2.747868-0.683742 4.128252-1.14817a434.059893 434.059893 0 0 0 66.400352-21.982942 366.704882 366.704882 0 0 1-142.205379 116.107087 376.767496 376.767496 0 0 0 78.088466-13.520026 365.905033 365.905033 0 0 0 216.397808-172.870551 365.466406 365.466406 0 0 1-61.60126 147.223786 360.486702 360.486702 0 0 0 61.149732-50.829102 362.963654 362.963654 0 0 0 96.394684-194.63418c7.779175 36.173808 10.062614 73.495786 6.643905 110.366236 165.336491-230.588674 13.739339-469.653165-49.693833-532.621908-0.232214-0.451528-0.464428-0.683742-0.464428-1.14817-0.219313 0.232214-0.219313 0.232214-0.219314 0.464428 0-0.232214 0-0.232214-0.232214-0.464428 0 2.747868-0.232214 5.495735-0.464428 8.256504a308.199811 308.199811 0 0 1-2.28344 15.339036c-1.14817 5.031307-2.515654 10.062614-3.896037 15.106822-1.599698 4.811994-3.431609 9.843301-5.495736 14.655294-2.064126 4.57978-4.347565 9.391773-6.863219 13.971553-2.528554 4.347565-5.276422 8.927345-8.256504 13.055597-2.967181 4.347565-6.179477 8.462917-9.378872 12.358954-3.431609 4.128252-7.095433 7.792076-10.759257 11.4559-2.29634 2.064126-4.360466 3.883137-6.643905 5.715048-1.831912 1.612598-3.431609 2.980082-5.263521 4.57978-4.128252 3.212296-8.256504 6.192378-12.823383 8.940246-4.360466 2.747868-8.940246 5.495735-13.520025 7.779174-4.799093 2.29634-9.611087 4.347565-14.423081 6.411692-4.811994 1.831912-9.843301 3.431609-14.887508 4.811993-5.031307 1.367483-10.294828 2.515654-15.339037 3.43161-5.263521 0.915956-10.527043 1.380384-15.57125 1.831912-3.663824 0.232214-7.327647 0.464428-10.991471 0.464428-5.263521 0-10.527043-0.464428-15.57125-0.915956a115.810369 115.810369 0 0 1-15.571251-2.29634 116.029682 116.029682 0 0 1-15.351937-3.896038h-0.219313c5.031307-0.451528 10.075515-0.903055 15.119723-1.831912 5.263521-0.903055 10.294828-2.064126 15.339036-3.431609 5.031307-1.367483 10.062614-2.967181 14.887509-4.811994 5.031307-1.831912 9.843301-4.128252 14.42308-6.411691 4.811994-2.283439 9.159559-4.799093 13.739339-7.546961 4.347565-2.980082 8.695131-5.960164 12.823382-9.159559 4.128252-3.212296 8.011389-6.643906 11.675213-10.32063 3.896038-3.418709 7.327647-7.314746 10.759257-11.210784 3.44451-4.128252 6.643906-8.243603 9.623987-12.358954 0.451528-0.696643 0.903055-1.612598 1.367483-2.296341 2.29634-3.663824 4.57978-7.327647 6.643906-10.99147a157.725027 157.725027 0 0 0 12.371855-28.626848c1.599698-4.799093 2.747868-9.843301 3.883137-14.874608 0.915956-5.276422 1.831912-10.32063 2.29634-15.351937 0.451528-5.263521 0.903055-10.527043 0.903055-15.57125 0-3.663824-0.219313-7.327647-0.451527-10.991471-0.451528-5.263521-1.135269-10.294828-1.831912-15.339036-0.903055-5.263521-2.064126-10.307729-3.431609-15.351937-1.599698-4.799093-3.199395-9.8304-5.031308-14.642394-1.831912-4.811994-4.128252-9.623987-6.411691-14.190866-2.528554-4.59268-5.031307-9.159559-7.792075-13.520025-2.967181-4.347565-5.947263-8.475817-9.15956-12.591169a484.605178 484.605178 0 0 0-10.527042-11.675212c-1.831912-1.831912-3.896038-3.896038-5.960164-5.72795a421.72674 421.72674 0 0 0-31.826242-22.44737 42.701606 42.701606 0 0 0-4.57978-2.283439c-7.559861-4.811994-14.655294-7.327647-21.750727-9.623988z" fill="#EA2845" p-id="6096"></path></svg>