<?xml version="1.0" standalone="no"?><!DOCTYPE svg PUBLIC "-//W3C//DTD SVG 1.1//EN" "http://www.w3.org/Graphics/SVG/1.1/DTD/svg11.dtd"><svg t="1717751684577" class="icon" viewBox="0 0 1024 1024" version="1.1" xmlns="http://www.w3.org/2000/svg" p-id="9788" xmlns:xlink="http://www.w3.org/1999/xlink" width="200" height="200"><path d="M930.28107 779.914421L578.237433 32.280192a56.47029 56.47029 0 0 0-48.153292-32.159062 55.873172 55.873172 0 0 0-51.437439 26.699699l-381.814229 618.443511a57.835131 57.835131 0 0 0 0.68242 62.057608l186.641987 289.090353a60.052998 60.052998 0 0 0 67.389017 24.780392l541.799168-160.240846c16.591347-4.904897 30.154453-16.633998 37.234564-32.201714s6.994809-33.39595-0.298559-48.835712z m-78.819559 32.07376L391.7234 947.9178a19.278377 19.278377 0 0 1-24.524484-22.178664l164.207415-786.404239c3.070892-14.71469 23.415551-17.060511 29.813242-3.412102l304.060952 645.655026a21.965407 21.965407 0 0 1-13.861665 30.41036z" p-id="9789"></path></svg>